<!DOCTYPE svg PUBLIC "-//W3C//DTD SVG 20010904//EN" "http://www.w3.org/TR/2001/REC-SVG-20010904/DTD/svg10.dtd">
<svg version="1.0" xmlns="http://www.w3.org/2000/svg" width="970px" height="450px" viewBox="0 0 9700 4500" preserveAspectRatio="xMidYMid meet">
<g id="layer101" fill="#a5d3ee" stroke="none">
 <path d="M0 2250 l0 -2250 4850 0 4850 0 0 2250 0 2250 -4850 0 -4850 0 0 -2250z"/>
 </g>
<g id="layer102" fill="#e8eef1" stroke="none">
 <path d="M0 3766 l0 -734 25 11 c14 7 25 15 25 20 0 4 7 7 15 7 8 0 50 34 92 75 43 41 79 75 80 75 2 0 24 -15 50 -33 96 -66 170 -89 307 -95 132 -5 192 7 300 60 81 40 179 124 218 186 16 26 23 30 34 21 8 -6 14 -16 14 -21 0 -33 179 -230 221 -243 10 -4 19 -10 19 -15 0 -5 16 -14 35 -21 19 -7 35 -16 35 -19 0 -18 152 -68 249 -81 82 -12 234 -5 291 13 131 41 259 112 343 191 l39 36 72 -54 c40 -30 78 -55 84 -55 5 0 12 -3 14 -8 3 -8 138 -75 183 -90 75 -26 234 -52 314 -52 90 0 229 25 341 59 38 12 162 71 170 82 3 3 15 12 28 18 25 14 45 29 101 77 l36 32 35 -25 c98 -68 175 -93 295 -93 65 0 105 5 144 20 52 19 55 19 70 1 32 -36 156 -124 220 -155 130 -62 220 -81 391 -81 167 1 261 20 388 82 l53 26 32 -30 c67 -62 81 -73 149 -108 81 -43 107 -52 208 -71 97 -18 145 -17 247 2 79 14 86 14 111 -2 111 -73 244 -114 364 -114 140 1 291 61 398 157 l61 56 57 -26 c125 -58 187 -71 337 -72 142 0 170 5 285 48 104 40 165 77 250 154 26 23 51 39 56 34 15 -13 114 -42 194 -57 181 -33 392 4 530 94 72 47 86 58 138 109 29 29 55 53 58 53 3 0 24 -13 47 -28 107 -72 188 -95 332 -96 131 -1 185 10 278 56 68 34 86 47 152 113 94 95 85 26 85 672 l0 573 -4850 0 -4850 0 0 -734z"/>
 </g>

</svg>