<!DOCTYPE svg PUBLIC "-//W3C//DTD SVG 20010904//EN" "http://www.w3.org/TR/2001/REC-SVG-20010904/DTD/svg10.dtd">
<svg version="1.0" xmlns="http://www.w3.org/2000/svg" width="970px" height="450px" viewBox="0 0 9700 4500" preserveAspectRatio="xMidYMid meet">
<g id="layer101" fill="#8dc0d9" stroke="none">
 <path d="M0 2250 l0 -2250 4850 0 4850 0 0 2250 0 2250 -4850 0 -4850 0 0 -2250z"/>
 </g>
<g id="layer102" fill="#a1cce0" stroke="none">
 <path d="M0 4125 l1 -375 24 -6 c13 -3 30 -4 37 -2 8 3 19 -11 28 -35 19 -51 56 -78 114 -84 32 -4 52 -13 65 -28 31 -40 82 -65 134 -65 49 0 112 25 137 55 12 14 16 13 42 -12 25 -24 37 -28 89 -28 57 0 63 2 92 35 29 32 35 35 82 32 68 -4 110 23 137 87 l21 48 49 -33 c65 -44 116 -58 213 -58 68 -1 89 4 138 27 65 32 112 82 138 148 11 27 22 42 31 40 7 -3 34 -6 59 -9 42 -3 48 -1 77 33 18 19 32 45 32 56 0 16 3 18 19 9 29 -15 59 -12 79 8 17 17 19 17 45 -9 15 -15 43 -33 63 -39 48 -16 114 8 150 55 24 32 26 33 46 17 12 -9 28 -26 37 -37 91 -112 169 -150 291 -143 54 3 92 12 134 31 55 26 59 26 89 10 18 -8 47 -29 65 -44 39 -34 70 -43 122 -36 33 4 40 1 51 -20 35 -66 168 -72 211 -9 4 6 24 -2 49 -20 l42 -29 171 0 c190 1 224 9 299 75 l37 32 53 -22 c74 -33 182 -33 255 -1 55 25 118 88 129 129 4 17 10 21 22 17 71 -29 122 -22 157 21 l21 26 39 -25 c102 -67 257 -56 328 22 l19 21 22 -48 c25 -53 76 -106 118 -121 16 -6 58 -11 95 -11 55 0 77 6 118 29 44 24 54 26 70 14 27 -20 88 -16 109 7 16 17 19 18 41 4 13 -9 32 -13 43 -9 14 4 21 0 26 -14 16 -50 96 -77 146 -50 17 9 25 6 44 -15 24 -26 64 -41 87 -34 8 3 19 -11 28 -35 19 -51 56 -78 114 -84 32 -4 52 -13 65 -28 31 -40 82 -65 134 -65 49 0 112 25 137 55 12 14 16 13 42 -12 25 -24 37 -28 89 -28 57 0 63 2 92 35 29 32 35 35 82 32 68 -4 110 23 137 87 l21 48 49 -33 c65 -44 116 -58 213 -58 68 -1 89 4 138 27 65 32 112 82 138 148 11 27 22 42 31 40 7 -3 34 -6 59 -9 42 -3 48 -1 77 33 18 19 32 45 32 56 0 16 3 18 19 9 29 -15 59 -12 79 8 17 17 19 17 45 -9 15 -15 43 -33 63 -39 48 -16 114 8 150 55 24 32 26 33 46 17 12 -9 28 -26 37 -37 91 -112 169 -150 291 -143 54 3 92 12 134 31 55 26 59 26 89 10 18 -8 47 -29 65 -44 39 -34 70 -43 122 -36 33 4 40 1 51 -20 35 -66 168 -72 211 -9 4 6 24 -2 49 -20 l42 -29 171 0 c190 1 224 9 299 75 l37 32 53 -22 c68 -30 173 -33 240 -7 l47 19 0 354 0 354 -4850 0 -4850 0 0 -375z"/>
 </g>
<g id="layer103" fill="#c4e0ee" stroke="none">
 <path d="M0 4220 c0 -318 -4 -302 87 -342 133 -59 313 -17 391 90 27 38 30 39 53 26 48 -27 125 -8 149 36 l11 21 26 -21 c95 -74 284 -57 373 35 l33 34 36 -20 c75 -40 171 -19 222 50 16 22 26 28 35 20 39 -32 117 -31 152 2 20 18 21 17 46 -16 36 -46 102 -71 150 -55 20 6 48 24 62 39 26 28 27 28 45 10 21 -21 51 -24 80 -9 16 9 19 7 19 -9 0 -11 14 -36 31 -56 26 -29 38 -35 71 -35 21 0 48 4 58 10 16 9 22 3 43 -43 62 -136 200 -198 358 -163 48 10 94 29 128 51 45 30 53 32 57 17 27 -89 65 -118 151 -116 43 1 63 -2 63 -10 0 -7 11 -23 24 -35 47 -44 144 -37 185 13 12 14 16 14 40 -5 85 -67 177 -65 251 5 25 24 48 35 79 39 58 7 93 34 109 85 9 28 18 39 28 35 23 -9 62 6 87 33 21 22 28 24 45 15 51 -27 131 0 147 50 5 14 12 18 26 14 11 -4 30 0 43 9 22 14 25 13 41 -4 21 -23 82 -27 109 -7 15 11 26 9 73 -15 133 -67 292 -11 333 115 l12 39 27 -25 c68 -64 168 -82 265 -48 32 11 67 28 78 38 18 16 20 16 41 -10 36 -44 87 -52 158 -22 12 4 18 0 22 -17 11 -41 74 -104 129 -129 76 -33 183 -32 258 2 l55 25 23 -27 c12 -15 47 -40 77 -54 137 -67 321 -29 403 83 27 38 30 39 53 26 48 -27 125 -8 149 36 l11 21 26 -21 c95 -74 284 -57 373 35 l33 34 36 -20 c75 -40 171 -19 222 50 16 22 26 28 35 20 39 -32 117 -31 152 2 20 18 21 17 46 -16 36 -46 102 -71 150 -55 20 6 48 24 62 39 26 28 27 28 45 10 21 -21 51 -24 80 -9 16 9 19 7 19 -9 0 -11 14 -36 31 -56 26 -29 38 -35 71 -35 21 0 48 4 58 10 16 9 22 3 43 -43 62 -136 200 -198 358 -163 48 10 94 29 128 51 45 30 53 32 57 17 27 -89 65 -118 151 -116 43 1 63 -2 63 -10 0 -7 11 -23 24 -35 47 -44 144 -37 185 13 12 14 16 14 40 -5 85 -67 177 -65 251 5 25 24 48 35 79 39 58 7 93 34 109 85 9 28 18 39 28 35 23 -9 62 6 87 33 21 22 28 24 45 15 51 -27 131 0 147 50 5 14 12 18 26 14 11 -4 30 0 43 9 22 14 25 13 41 -4 43 -47 45 -34 45 230 l0 250 -4850 0 -4850 0 0 -280z"/>
 </g>

</svg>